<svg id="Layer_1" data-name="Layer 1" xmlns="http://www.w3.org/2000/svg" viewBox="0 0 160 160"><defs><style>.cls-1{fill:#0064ad;}</style></defs><title>Artboard 1</title><path class="cls-1" d="M95.71,97.72a47.79,47.79,0,0,1-23.94-6.44L81,75.34a29.34,29.34,0,1,0,0-50.77L71.77,8.62a47.77,47.77,0,1,1,23.94,89.1Z"/><circle class="cls-1" cx="76.4" cy="83.39" r="19.44" transform="translate(-22.31 138.59) rotate(-76.72)"/><path class="cls-1" d="M75.17,131A47.69,47.69,0,1,1,112,53L97.75,64.71a29.26,29.26,0,1,0-1.26,38.63L109.93,116A47.87,47.87,0,0,1,75.17,131Z"/><path class="cls-1" d="M35.42,154.72a15.33,15.33,0,0,1-5,.88,8.32,8.32,0,0,1-6.05-2.13,8.36,8.36,0,0,1-2.26-6c0-4.82,3.34-8.35,8.76-8.35a10.15,10.15,0,0,1,4,.74l-.51,1.71a8.27,8.27,0,0,0-3.58-.7c-3.93,0-6.5,2.45-6.5,6.51s2.47,6.53,6.24,6.53a6.8,6.8,0,0,0,2.79-.44v-4.82H30.09v-1.68h5.33Z"/><path class="cls-1" d="M40.69,139.26v16.18H38.61V139.26Z"/><path class="cls-1" d="M47.41,141H42.49v-1.77h12V141H49.53v14.41H47.41Z"/><path class="cls-1" d="M61.07,152.89A7.36,7.36,0,0,0,64.81,154c2.14,0,3.39-1.13,3.39-2.76s-.87-2.38-3-3.22c-2.64-.93-4.27-2.3-4.27-4.58,0-2.52,2.09-4.4,5.23-4.4a7.32,7.32,0,0,1,3.58.8l-.58,1.7a6.43,6.43,0,0,0-3.07-.77c-2.21,0-3.05,1.32-3.05,2.43,0,1.51,1,2.25,3.22,3.12,2.73,1,4.12,2.37,4.12,4.75s-1.84,4.66-5.66,4.66a8.34,8.34,0,0,1-4.13-1Z"/><path class="cls-1" d="M81.57,147.85H75.28v5.83h7v1.76h-9.1V139.26h8.74V141H75.28v5.11h6.29Z"/><path class="cls-1" d="M87.61,150.35l-1.68,5.09H83.77l5.5-16.18h2.52l5.52,16.18H95.08l-1.73-5.09Zm5.31-1.64-1.59-4.65c-.36-1.06-.6-2-.84-2.95h0c-.24,1-.51,1.94-.82,2.92l-1.58,4.68Z"/><path class="cls-1" d="M99.69,139.47a22.19,22.19,0,0,1,4-.33c2.24,0,3.68.41,4.68,1.32a4,4,0,0,1,1.28,3.07,4.26,4.26,0,0,1-3.05,4.13v.07c1.25.43,2,1.59,2.37,3.27a26.84,26.84,0,0,0,1.25,4.44h-2.16a21.78,21.78,0,0,1-1.08-3.87c-.48-2.23-1.34-3.07-3.24-3.14h-2v7H99.69Zm2.08,7.37h2.14c2.23,0,3.65-1.22,3.65-3.07,0-2.09-1.51-3-3.72-3a8.48,8.48,0,0,0-2.07.19Z"/><path class="cls-1" d="M124,154.91a10.38,10.38,0,0,1-4.27.77c-4.56,0-8-2.89-8-8.19,0-5.06,3.43-8.5,8.45-8.5a8.81,8.81,0,0,1,3.84.72l-.5,1.71a7.59,7.59,0,0,0-3.27-.67c-3.79,0-6.31,2.42-6.31,6.67,0,4,2.28,6.5,6.21,6.5a8.31,8.31,0,0,0,3.41-.67Z"/><path class="cls-1" d="M128.68,139.26V146h7.82v-6.77h2.12v16.18H136.5v-7.59h-7.82v7.59h-2.09V139.26Z"/></svg>